<svg width="21" height="22" viewBox="0 0 21 22" fill="none" xmlns="http://www.w3.org/2000/svg">
<path fill-rule="evenodd" clip-rule="evenodd" d="M10.4953 2.97559C8.19455 2.97559 6.33105 4.83908 6.33105 7.13981C6.33105 9.44055 8.19455 11.304 10.4953 11.304C12.796 11.304 14.6595 9.44055 14.6595 7.13981C14.6595 4.83908 12.796 2.97559 10.4953 2.97559ZM12.5783 7.13926C12.5783 5.9941 11.6413 5.05715 10.4962 5.05715C9.35101 5.05715 8.41406 5.9941 8.41406 7.13926C8.41406 8.28442 9.35101 9.22137 10.4962 9.22137C11.6413 9.22137 12.5783 8.28442 12.5783 7.13926ZM16.7437 16.5099C16.5355 15.7707 13.3082 14.4278 10.4973 14.4278C7.68647 14.4278 4.45919 15.7707 4.25098 16.5203V17.5509H16.7437V16.5099ZM2.16797 16.509C2.16797 13.7398 7.7168 12.3448 10.4964 12.3448C13.276 12.3448 18.8249 13.7398 18.8249 16.509V19.6322H2.16797V16.509Z" fill="white"/>
<path d="M16.7437 16.5099H18.7682V16.2302L18.6923 15.9609L16.7437 16.5099ZM4.25098 16.5203L2.30032 15.9784L2.22646 16.2443V16.5203H4.25098ZM4.25098 17.5509H2.22646V19.5754H4.25098V17.5509ZM16.7437 17.5509V19.5754H18.7682V17.5509H16.7437ZM18.8249 19.6322V21.6567H20.8494V19.6322H18.8249ZM2.16797 19.6322H0.143457V21.6567H2.16797V19.6322ZM8.35557 7.13981C8.35557 5.95719 9.31265 5.0001 10.4953 5.0001V0.951074C7.07644 0.951074 4.30654 3.72097 4.30654 7.13981H8.35557ZM10.4953 9.27953C9.31265 9.27953 8.35557 8.32244 8.35557 7.13981H4.30654C4.30654 10.5587 7.07644 13.3286 10.4953 13.3286V9.27953ZM12.635 7.13981C12.635 8.32244 11.6779 9.27953 10.4953 9.27953V13.3286C13.9141 13.3286 16.684 10.5587 16.684 7.13981H12.635ZM10.4953 5.0001C11.6779 5.0001 12.635 5.95719 12.635 7.13981H16.684C16.684 3.72097 13.9141 0.951074 10.4953 0.951074V5.0001ZM10.4962 7.08166C10.5041 7.08166 10.5086 7.0829 10.513 7.08477C10.5188 7.08724 10.5269 7.09214 10.5351 7.10031C10.5433 7.10849 10.5482 7.11662 10.5507 7.12243C10.5525 7.12682 10.5538 7.13131 10.5538 7.13926H14.6028C14.6028 4.87599 12.7594 3.03263 10.4962 3.03263V7.08166ZM10.4386 7.13926C10.4386 7.13131 10.4398 7.12682 10.4417 7.12243C10.4442 7.11662 10.4491 7.10849 10.4572 7.10031C10.4654 7.09214 10.4735 7.08724 10.4793 7.08477C10.4837 7.0829 10.4882 7.08166 10.4962 7.08166V3.03263C8.23291 3.03263 6.38955 4.87599 6.38955 7.13926H10.4386ZM10.4962 7.19686C10.4882 7.19686 10.4837 7.19562 10.4793 7.19375C10.4735 7.19128 10.4654 7.18638 10.4572 7.17821C10.4491 7.17003 10.4442 7.16191 10.4417 7.1561C10.4398 7.1517 10.4386 7.14721 10.4386 7.13926H6.38955C6.38955 9.40253 8.23291 11.2459 10.4962 11.2459V7.19686ZM10.5538 7.13926C10.5538 7.14721 10.5525 7.1517 10.5507 7.1561C10.5482 7.16191 10.5433 7.17003 10.5351 7.17821C10.5269 7.18638 10.5188 7.19128 10.513 7.19375C10.5086 7.19562 10.5041 7.19686 10.4962 7.19686V11.2459C12.7594 11.2459 14.6028 9.40253 14.6028 7.13926H10.5538ZM10.4973 16.4523C11.616 16.4523 12.8898 16.7274 13.9081 17.0955C14.4145 17.2786 14.7925 17.4614 15.0187 17.5997C15.1343 17.6705 15.1625 17.7007 15.1399 17.6793C15.1268 17.6669 15.0782 17.6197 15.0185 17.5356C14.9615 17.4551 14.8615 17.2948 14.795 17.0588L18.6923 15.9609C18.5192 15.3463 18.1338 14.9377 17.9216 14.7371C17.6717 14.5008 17.3917 14.3048 17.1315 14.1457C16.6062 13.8243 15.9627 13.5328 15.2848 13.2877C13.9348 12.7996 12.1895 12.4032 10.4973 12.4032V16.4523ZM6.20163 17.0621C6.13685 17.2953 6.039 17.4545 5.98229 17.5354C5.9232 17.6197 5.8749 17.667 5.86148 17.6799C5.83847 17.7018 5.86594 17.6719 5.98082 17.6011C6.20575 17.4627 6.58252 17.2796 7.08834 17.0962C8.10539 16.7273 9.37865 16.4523 10.4973 16.4523V12.4032C8.80513 12.4032 7.05933 12.7996 5.70797 13.2897C5.02959 13.5357 4.38483 13.8289 3.85824 14.1531C3.59736 14.3137 3.31658 14.5116 3.06625 14.7505C2.85198 14.9549 2.4707 15.3651 2.30032 15.9784L6.20163 17.0621ZM6.27549 17.5509V16.5203H2.22646V17.5509H6.27549ZM16.7437 15.5264H4.25098V19.5754H16.7437V15.5264ZM14.7192 16.5099V17.5509H18.7682V16.5099H14.7192ZM10.4964 10.3202C8.85354 10.3202 6.5155 10.7165 4.53698 11.5091C3.5461 11.906 2.51808 12.4522 1.70533 13.2023C0.878817 13.9652 0.143457 15.0731 0.143457 16.509H4.19248C4.19248 16.5069 4.19251 16.5068 4.19292 16.5053C4.1935 16.503 4.19684 16.4905 4.2092 16.4667C4.23552 16.4159 4.30182 16.3159 4.45148 16.1778C4.766 15.8875 5.29892 15.5657 6.0427 15.2677C7.5335 14.6705 9.35969 14.3693 10.4964 14.3693V10.3202ZM20.8494 16.509C20.8494 15.0731 20.114 13.9652 19.2875 13.2023C18.4748 12.4522 17.4468 11.906 16.4559 11.5091C14.4774 10.7165 12.1393 10.3202 10.4964 10.3202V14.3693C11.6332 14.3693 13.4594 14.6705 14.9502 15.2677C15.6939 15.5657 16.2269 15.8875 16.5414 16.1778C16.691 16.3159 16.7573 16.4159 16.7837 16.4667C16.796 16.4905 16.7994 16.503 16.7999 16.5053C16.8003 16.5068 16.8004 16.5069 16.8004 16.509H20.8494ZM20.8494 19.6322V16.509H16.8004V19.6322H20.8494ZM2.16797 21.6567H18.8249V17.6076H2.16797V21.6567ZM0.143457 16.509V19.6322H4.19248V16.509H0.143457Z" fill="white"/>
</svg>
