<svg width="25" height="22" viewBox="0 0 25 22" fill="none" xmlns="http://www.w3.org/2000/svg">
<path fill-rule="evenodd" clip-rule="evenodd" d="M1.19594 2.15219L2.74594 3.71219C2.33594 4.08219 2.08594 4.60219 2.08594 5.19219V15.1722C2.08594 16.2722 2.98594 17.1722 4.09594 17.1722H0.0859375V19.1722H18.2159L20.9259 21.8822L22.3359 20.4722L2.60594 0.742188L1.19594 2.15219ZM21.8759 17.1722L23.8759 19.1722H24.0859V17.1722H21.8759ZM4.21594 5.19219H4.08594V15.1922H14.2159L10.7559 11.7122C9.21594 12.0922 8.04594 12.8822 7.08594 14.1722C7.39594 12.6922 8.02594 11.2422 9.16594 10.1222L4.21594 5.19219ZM20.0859 5.19219V15.3822L21.3859 16.6822C21.8059 16.3122 22.0859 15.7922 22.0859 15.1922V5.19219C22.0859 4.08219 21.1859 3.19219 20.0859 3.19219H7.88594L9.88594 5.19219H20.0859ZM15.8059 11.1022L13.0159 8.32219L13.0859 8.30219V6.17219L17.0859 9.90219L15.8059 11.1022Z" fill="black" fillOpacity="0.54"/>
</svg>
