<svg width="15" height="24" viewBox="0 0 15 24" fill="none" xmlns="http://www.w3.org/2000/svg">
<path fill-rule="evenodd" clip-rule="evenodd" d="M10.0859 9.70312C10.0859 11.3631 8.74594 12.7031 7.08594 12.7031C5.42594 12.7031 4.08594 11.3631 4.08594 9.70312V3.70312C4.08594 2.04313 5.42594 0.703125 7.08594 0.703125C8.74594 0.703125 10.0859 2.04313 10.0859 3.70312V9.70312ZM4.08594 21.7031H2.08594V23.7031H4.08594V21.7031ZM6.08594 3.70312C6.08594 3.15313 6.53594 2.70312 7.08594 2.70312C7.63594 2.70312 8.08594 3.15313 8.08594 3.70312V9.70312C8.08594 10.2631 7.64594 10.7031 7.08594 10.7031C6.53594 10.7031 6.08594 10.2531 6.08594 9.70312V3.70312ZM8.08594 23.7031V21.7031H6.08594V23.7031H8.08594ZM10.0859 21.7031H12.0859V23.7031H10.0859V21.7031ZM12.3859 9.70312H14.0859C14.0859 13.1131 11.3659 15.9331 8.08594 16.4231V19.7031H6.08594V16.4231C2.80594 15.9331 0.0859375 13.1131 0.0859375 9.70312H1.78594C1.78594 12.7031 4.32594 14.8031 7.08594 14.8031C9.84594 14.8031 12.3859 12.7031 12.3859 9.70312Z" fill="black" fillOpacity="0.54"/>
</svg>
