<svg width="30" height="10" viewBox="0 0 30 10" fill="none" xmlns="http://www.w3.org/2000/svg">
<path d="M5.89047 5.05472C6.65847 4.74272 7.17447 4.10672 7.17447 3.14672C7.17447 1.77872 6.09447 0.986718 4.22247 0.986718H0.598469V9.38672H4.46247C6.56247 9.38672 7.61847 8.57072 7.61847 7.14272C7.61847 6.00272 6.97047 5.29472 5.89047 5.05472ZM4.16247 1.71872C5.50647 1.71872 6.28647 2.23472 6.28647 3.24272C6.28647 4.25072 5.50647 4.76672 4.16247 4.76672H1.48647V1.71872H4.16247ZM4.45047 8.65472H1.48647V5.49872H4.45047C5.92647 5.49872 6.73047 5.97872 6.73047 7.07072C6.73047 8.17472 5.92647 8.65472 4.45047 8.65472ZM11.6733 3.02672C10.6773 3.02672 9.74134 3.33872 9.10534 3.87872L9.48934 4.51472C10.0053 4.05872 10.7733 3.77072 11.5893 3.77072C12.7653 3.77072 13.3773 4.35872 13.3773 5.43872V5.82272H11.3733C9.56134 5.82272 8.93734 6.63872 8.93734 7.61072C8.93734 8.70272 9.81334 9.44672 11.2413 9.44672C12.2853 9.44672 13.0293 9.05072 13.4133 8.40272V9.38672H14.2293V5.47472C14.2293 3.84272 13.3053 3.02672 11.6733 3.02672ZM11.3733 8.77472C10.3653 8.77472 9.77734 8.31872 9.77734 7.58672C9.77734 6.93872 10.1733 6.45872 11.3973 6.45872H13.3773V7.49072C13.0413 8.31872 12.3333 8.77472 11.3733 8.77472ZM19.1829 9.44672C20.2509 9.44672 21.1509 9.01472 21.6549 8.19872L21.0189 7.76672C20.5869 8.40272 19.9149 8.69072 19.1829 8.69072C17.8029 8.69072 16.7949 7.71872 16.7949 6.23072C16.7949 4.75472 17.8029 3.77072 19.1829 3.77072C19.9149 3.77072 20.5869 4.07072 21.0189 4.70672L21.6549 4.27472C21.1509 3.44672 20.2509 3.02672 19.1829 3.02672C17.2989 3.02672 15.9309 4.34672 15.9309 6.23072C15.9309 8.11472 17.2989 9.44672 19.1829 9.44672ZM28.1189 9.38672H29.1629L26.2109 5.65472L28.9109 3.07472H27.8549L24.0869 6.51872V0.482718H23.2349V9.38672H24.0869V7.58672L25.5749 6.21872L28.1189 9.38672Z" fill="#B569D4"/>
</svg>
