<svg width="23" height="19" viewBox="0 0 23 19" fill="none" xmlns="http://www.w3.org/2000/svg">
<path fill-rule="evenodd" clip-rule="evenodd" d="M2.08594 0.820312H20.0859C21.1859 0.820312 22.0859 1.72031 22.0859 2.82031V16.8203C22.0859 17.9203 21.1859 18.8203 20.0859 18.8203H13.0859V16.8203H20.0859V2.82031H2.08594V5.82031H0.0859375V2.82031C0.0859375 1.72031 0.985937 0.820312 2.08594 0.820312ZM0.0859375 18.8203V15.8203C1.74594 15.8203 3.08594 17.1603 3.08594 18.8203H0.0859375ZM0.0859375 11.8203V13.8203C2.84594 13.8203 5.08594 16.0603 5.08594 18.8203H7.08594C7.08594 14.9503 3.95594 11.8203 0.0859375 11.8203ZM0.0859375 9.82031V7.82031C6.15594 7.82031 11.0859 12.7403 11.0859 18.8203H9.08594C9.08594 13.8503 5.05594 9.82031 0.0859375 9.82031ZM10.0859 8.91031V10.9103L13.5859 12.8203L17.0859 10.9103V8.91031L13.5859 10.8203L10.0859 8.91031ZM8.08594 6.82031L13.5859 3.82031L19.0859 6.82031L13.5859 9.82031L8.08594 6.82031Z" fill="black" fillOpacity="0.54"/>
</svg>
