<svg width="17" height="23" viewBox="0 0 17 23" fill="none" xmlns="http://www.w3.org/2000/svg">
<path fill-rule="evenodd" clip-rule="evenodd" d="M5.88594 0.988281H14.2859C15.2759 0.988281 16.0859 1.79828 16.0859 2.78828V17.1883C16.0859 18.1783 15.2759 18.9883 14.2859 18.9883L5.88594 18.9783C4.89594 18.9783 4.08594 18.1783 4.08594 17.1883V2.78828C4.08594 1.79828 4.89594 0.988281 5.88594 0.988281ZM14.0859 16.9883V2.98828H6.08594V16.9783L14.0859 16.9883ZM10.0859 7.98828C11.1859 7.98828 12.0859 7.09828 12.0859 5.98828C12.0859 4.87828 11.1859 3.98828 10.0859 3.98828C8.98594 3.98828 8.08594 4.87828 8.08594 5.98828C8.08594 7.09828 8.98594 7.98828 10.0859 7.98828ZM13.5859 12.4883C13.5859 14.4183 12.0159 15.9883 10.0859 15.9883C8.15594 15.9883 6.58594 14.4183 6.58594 12.4883C6.58594 10.5583 8.15594 8.98828 10.0859 8.98828C12.0159 8.98828 13.5859 10.5583 13.5859 12.4883ZM10.0859 10.9883C10.9159 10.9883 11.5859 11.6583 11.5859 12.4883C11.5859 13.3183 10.9159 13.9883 10.0859 13.9883C9.25594 13.9883 8.58594 13.3183 8.58594 12.4883C8.58594 11.6583 9.25594 10.9883 10.0859 10.9883ZM0.0859375 4.98828H2.08594V20.9883H12.0859V22.9883H2.08594C0.975937 22.9883 0.0859375 22.0883 0.0859375 20.9883V4.98828Z" fill="black" fillOpacity="0.54"/>
</svg>
