<svg width="21" height="21" viewBox="0 0 21 21" fill="none" xmlns="http://www.w3.org/2000/svg">
<path opacity="0.54" fill-rule="evenodd" clip-rule="evenodd" d="M14.0859 0.648438H1.08594C0.535937 0.648438 0.0859375 1.09844 0.0859375 1.64844V15.6484L4.08594 11.6484H14.0859C14.6359 11.6484 15.0859 11.1984 15.0859 10.6484V1.64844C15.0859 1.09844 14.6359 0.648438 14.0859 0.648438ZM13.0859 2.64844V9.64844H3.25594L2.66594 10.2384L2.08594 10.8184V2.64844H13.0859ZM17.0859 4.64844H19.0859C19.6359 4.64844 20.0859 5.09844 20.0859 5.64844V20.6484L16.0859 16.6484H5.08594C4.53594 16.6484 4.08594 16.1984 4.08594 15.6484V13.6484H17.0859V4.64844Z" fill="#363740"/>
</svg>
