<svg width="18" height="24" viewBox="0 0 18 24" fill="none" xmlns="http://www.w3.org/2000/svg">
<path fill-rule="evenodd" clip-rule="evenodd" d="M11.0859 0.222656C9.98594 0.222656 9.08594 1.12266 9.08594 2.22266C9.08594 3.32266 9.98594 4.22266 11.0859 4.22266C12.1859 4.22266 13.0859 3.32266 13.0859 2.22266C13.0859 1.12266 12.1859 0.222656 11.0859 0.222656ZM4.58594 13.7227L0.0859375 18.2227L1.58594 19.7227L5.08594 16.2227H7.08594L4.58594 13.7227ZM14.0859 23.2227L17.0859 20.2327L14.0859 17.2227H12.5859L6.29594 10.9327C7.15594 10.5627 7.95594 10.0627 8.58594 9.54266V11.8127L12.1659 15.3927C12.7359 14.8427 13.0859 14.0727 13.0859 13.2327V7.48266C13.0859 6.24266 12.0759 5.23266 10.8359 5.22266H10.8059C10.4659 5.22266 10.1359 5.31266 9.84594 5.45266C9.58594 5.57266 9.34594 5.74266 9.15594 5.95266L7.75594 7.50266C6.69594 8.67266 4.74594 9.57266 3.08594 9.54266V11.7027C3.38594 11.7027 3.68594 11.6827 3.99594 11.6327L11.0959 18.7227V20.2127L14.0859 23.2227Z" fill="black" fillOpacity="0.54"/>
</svg>
