<svg width="23" height="18" viewBox="0 0 23 18" fill="none" xmlns="http://www.w3.org/2000/svg">
<path fill-rule="evenodd" clip-rule="evenodd" d="M16.5859 0.9375C17.7559 0.9375 18.9759 1.0875 20.0859 1.4375C20.8359 1.6875 21.4859 1.9875 22.0859 2.4375V17.0375C22.0859 17.2875 21.8359 17.5375 21.5859 17.5375C21.4859 17.5375 21.4359 17.5375 21.3359 17.4875C19.9359 16.7375 18.2359 16.4375 16.5859 16.4375C14.8859 16.4375 12.4359 17.0875 11.0859 17.9375C9.63594 16.8375 7.53594 16.4375 5.58594 16.4375C4.13594 16.4375 2.18594 16.8875 0.835938 17.5375C0.785937 17.5375 0.748438 17.55 0.710938 17.5625C0.673437 17.575 0.635938 17.5875 0.585938 17.5875C0.335938 17.5875 0.0859375 17.3375 0.0859375 17.0875V2.4375C1.53594 1.3375 3.63594 0.9375 5.58594 0.9375C7.53594 0.9375 9.63594 1.3375 11.0859 2.4375C12.5359 1.3375 14.6359 0.9375 16.5859 0.9375ZM16.5859 14.4375C17.7859 14.4375 18.9859 14.5875 20.0859 14.9375V3.4375C18.9859 3.0875 17.7859 2.9375 16.5859 2.9375C14.8859 2.9375 12.4359 3.5875 11.0859 4.4375V15.9375C12.4359 15.0875 14.8859 14.4375 16.5859 14.4375Z" fill="black" fillOpacity="0.54"/>
</svg>
