<svg width="42" height="42" viewBox="0 0 42 42" fill="none" xmlns="http://www.w3.org/2000/svg">
<path fill-rule="evenodd" clip-rule="evenodd" d="M21.147 0.277344C9.84472 0.277344 0.671875 9.45019 0.671875 20.7524C0.671875 32.0547 9.84472 41.2275 21.147 41.2275C32.4492 41.2275 41.6221 32.0547 41.6221 20.7524C41.6221 9.45019 32.4492 0.277344 21.147 0.277344ZM11.0524 33.6099C11.9329 31.7672 17.2973 29.9654 21.1467 29.9654C24.996 29.9654 30.3809 31.7672 31.2409 33.6099C28.4563 35.8212 24.955 37.1316 21.1467 37.1316C17.3383 37.1316 13.8371 35.8212 11.0524 33.6099ZM21.1477 25.8704C24.1371 25.8704 31.2419 27.0784 34.1699 30.6411C36.2583 27.8974 37.5278 24.4781 37.5278 20.7516C37.5278 11.7221 30.1772 4.37155 21.1477 4.37155C12.1182 4.37155 4.76763 11.7221 4.76763 20.7516C4.76763 24.4781 6.03709 27.8974 8.12555 30.6411C11.0535 27.0784 18.1583 25.8704 21.1477 25.8704ZM21.1478 8.46653C17.1756 8.46653 13.9815 11.6606 13.9815 15.6328C13.9815 19.605 17.1756 22.7991 21.1478 22.7991C25.12 22.7991 28.3141 19.605 28.3141 15.6328C28.3141 11.6606 25.12 8.46653 21.1478 8.46653ZM18.0757 15.6328C18.0757 17.3322 19.4476 18.704 21.147 18.704C22.8464 18.704 24.2183 17.3322 24.2183 15.6328C24.2183 13.9333 22.8464 12.5615 21.147 12.5615C19.4476 12.5615 18.0757 13.9333 18.0757 15.6328Z" fill="white"/>
</svg>
