<svg width="25" height="19" viewBox="0 0 25 19" fill="none" xmlns="http://www.w3.org/2000/svg">
<path fill-rule="evenodd" clip-rule="evenodd" d="M22.0859 0.09375H2.08594C0.985937 0.09375 0.0859375 0.99375 0.0859375 2.09375V16.0938C0.0859375 17.1938 0.985937 18.0938 2.08594 18.0938H22.0859C23.1859 18.0938 24.0759 17.1938 24.0759 16.0938L24.0859 2.09375C24.0859 0.99375 23.1859 0.09375 22.0859 0.09375ZM2.08594 16.0938V2.09375H22.0859V16.0938H2.08594ZM21.0859 13.0938L19.0959 15.0837C17.7859 14.1037 16.8159 12.7037 16.3659 11.0938C16.1859 10.4537 16.0859 9.78375 16.0859 9.09375C16.0859 8.40375 16.1859 7.73375 16.3659 7.09375C16.8159 5.47375 17.7859 4.08375 19.0959 3.10375L21.0859 5.09375L19.5759 7.09375H17.9359C17.7159 7.72375 17.5859 8.39375 17.5859 9.09375C17.5859 9.79375 17.7159 10.4637 17.9359 11.0938H19.5759L21.0859 13.0938ZM9.08594 9.09375C10.7359 9.09375 12.0859 7.74375 12.0859 6.09375C12.0859 4.44375 10.7359 3.09375 9.08594 3.09375C7.43594 3.09375 6.08594 4.44375 6.08594 6.09375C6.08594 7.74375 7.43594 9.09375 9.08594 9.09375ZM10.0859 6.09375C10.0859 5.54375 9.63594 5.09375 9.08594 5.09375C8.53594 5.09375 8.08594 5.54375 8.08594 6.09375C8.08594 6.64375 8.53594 7.09375 9.08594 7.09375C9.63594 7.09375 10.0859 6.64375 10.0859 6.09375ZM15.0859 13.6838C15.0859 11.1838 11.1159 10.1038 9.08594 10.1038C7.05594 10.1038 3.08594 11.1838 3.08594 13.6838V15.0938H15.0859V13.6838ZM9.08594 12.0938C7.78594 12.0938 6.30594 12.5938 5.56594 13.0938H12.6059C11.8559 12.5837 10.3859 12.0938 9.08594 12.0938Z" fill="black" fillOpacity="0.54"/>
</svg>
