<svg width="45" height="43" viewBox="0 0 45 43" fill="none" xmlns="http://www.w3.org/2000/svg">
<path fill-rule="evenodd" clip-rule="evenodd" d="M39.8212 9.51321H35.0835C35.3226 8.83951 35.4747 8.10061 35.4747 7.33998C35.4747 3.73243 32.5626 0.820312 28.955 0.820312C26.6732 0.820312 24.6955 1.99385 23.522 3.75416L22.4354 5.21023L21.3488 3.73243C20.1752 1.99385 18.1976 0.820312 15.9157 0.820312C12.3081 0.820312 9.39602 3.73243 9.39602 7.33998C9.39602 8.10061 9.54815 8.83951 9.7872 9.51321H5.04957C2.63729 9.51321 0.724857 11.4474 0.724857 13.8597L0.703125 37.7651C0.703125 40.1774 2.63729 42.1116 5.04957 42.1116H39.8212C42.2334 42.1116 44.1676 40.1774 44.1676 37.7651V13.8597C44.1676 11.4474 42.2334 9.51321 39.8212 9.51321ZM28.955 5.16676C30.1503 5.16676 31.1283 6.14471 31.1283 7.33998C31.1283 8.53526 30.1503 9.51321 28.955 9.51321C27.7598 9.51321 26.7818 8.53526 26.7818 7.33998C26.7818 6.14471 27.7598 5.16676 28.955 5.16676ZM18.0889 7.33998C18.0889 6.14471 17.111 5.16676 15.9157 5.16676C14.7204 5.16676 13.7425 6.14471 13.7425 7.33998C13.7425 8.53526 14.7204 9.51321 15.9157 9.51321C17.111 9.51321 18.0889 8.53526 18.0889 7.33998ZM5.04957 37.7651V33.4187H39.8212V37.7651H5.04957ZM5.04957 13.8605V26.8999H39.8212V13.8605H28.7812L33.3015 20.0107L29.7809 22.5534L22.4354 12.5566L15.0899 22.5534L11.5692 20.0107L16.0896 13.8605H5.04957Z" fill="white"/>
</svg>
