<svg width="19" height="19" viewBox="0 0 19 19" fill="none" xmlns="http://www.w3.org/2000/svg">
<path fill-rule="evenodd" clip-rule="evenodd" d="M16.0859 0.878906H6.08594C4.97594 0.878906 4.08594 1.77891 4.08594 2.87891V12.8789C4.08594 13.9789 4.97594 14.8789 6.08594 14.8789H16.0859C17.1859 14.8789 18.0859 13.9789 18.0859 12.8789V2.87891C18.0859 1.77891 17.1859 0.878906 16.0859 0.878906ZM0.0859375 6.87891H2.08594V4.87891H0.0859375V6.87891ZM0.0859375 10.8789H2.08594V8.87891H0.0859375V10.8789ZM0.0859375 14.8789H2.08594V12.8789H0.0859375V14.8789ZM2.08594 16.8789V18.8789C0.975937 18.8789 0.0859375 17.9789 0.0859375 16.8789H2.08594ZM14.0859 18.8789H12.0859V16.8789H14.0859V18.8789ZM6.08594 12.8789H16.0859V2.87891H6.08594V12.8789ZM8.08594 18.8789H10.0859V16.8789H8.08594V18.8789ZM6.08594 18.8789H4.08594V16.8789H6.08594V18.8789Z" fill="black" fillOpacity="0.54"/>
</svg>
