<svg width="21" height="19" viewBox="0 0 21 19" fill="none" xmlns="http://www.w3.org/2000/svg">
<path fill-rule="evenodd" clip-rule="evenodd" d="M7.8125 0.660156H13.8125L15.6425 2.66016H18.8125C19.9125 2.66016 20.8125 3.56016 20.8125 4.66016V16.6602C20.8125 17.7602 19.9125 18.6602 18.8125 18.6602H2.8125C1.7125 18.6602 0.8125 17.7602 0.8125 16.6602V4.66016C0.8125 3.56016 1.7125 2.66016 2.8125 2.66016H5.9825L7.8125 0.660156ZM14.7625 4.66016L12.9325 2.66016H8.6925L6.8625 4.66016H2.8125V16.6602H18.8125V4.66016H14.7625ZM10.8125 7.66016C12.4625 7.66016 13.8125 9.01016 13.8125 10.6602C13.8125 12.3102 12.4625 13.6602 10.8125 13.6602C9.1625 13.6602 7.8125 12.3102 7.8125 10.6602C7.8125 9.01016 9.1625 7.66016 10.8125 7.66016ZM5.8125 10.6602C5.8125 7.90016 8.0525 5.66016 10.8125 5.66016C13.5725 5.66016 15.8125 7.90016 15.8125 10.6602C15.8125 13.4202 13.5725 15.6602 10.8125 15.6602C8.0525 15.6602 5.8125 13.4202 5.8125 10.6602Z" fill="#B569D4"/>
</svg>
