<svg width="39" height="32" viewBox="0 0 39 32" fill="none" xmlns="http://www.w3.org/2000/svg">
<path fill-rule="evenodd" clip-rule="evenodd" d="M34.6611 0.8125H3.5329C1.80356 0.8125 0.0742188 2.54184 0.0742188 4.27118V28.482C0.0742188 30.3842 1.63063 31.9407 3.5329 31.9407H34.6611C36.3904 31.9407 38.1197 30.2113 38.1197 28.482V4.27118C38.1197 2.54184 36.3904 0.8125 34.6611 0.8125ZM34.6611 28.3436C34.6369 28.3798 34.596 28.416 34.5617 28.4463C34.5468 28.4594 34.5332 28.4715 34.5227 28.482H3.5329V4.40953L3.67125 4.27118H34.5054C34.5416 4.29529 34.5778 4.33622 34.6081 4.37052L34.6081 4.37054C34.6212 4.38543 34.6333 4.39906 34.6438 4.40953V28.3436H34.6611ZM13.0443 17.2413L17.3676 22.4466L23.4203 14.6472L31.2024 25.0233H6.99158L13.0443 17.2413Z" fill="#BDBDBD"/>
</svg>
