<svg width="21" height="19" viewBox="0 0 21 19" fill="none" xmlns="http://www.w3.org/2000/svg">
<path fill-rule="evenodd" clip-rule="evenodd" d="M20.0859 4.49609V6.49609H18.0859V8.49609H20.0859V10.4961H18.0859V12.4961H20.0859V14.4961H18.0859V16.4961C18.0859 17.5961 17.1859 18.4961 16.0859 18.4961H2.08594C0.985937 18.4961 0.0859375 17.5961 0.0859375 16.4961V2.49609C0.0859375 1.39609 0.985937 0.496094 2.08594 0.496094H16.0859C17.1859 0.496094 18.0859 1.39609 18.0859 2.49609V4.49609H20.0859ZM2.08594 16.4961H16.0859V2.49609H2.08594V16.4961ZM4.08594 10.4961H9.08594V14.4961H4.08594V10.4961ZM14.0859 4.49609H10.0859V7.49609H14.0859V4.49609ZM4.08594 4.49609H9.08594V9.49609H4.08594V4.49609ZM14.0859 8.49609H10.0859V14.4961H14.0859V8.49609Z" fill="black" fillOpacity="0.54"/>
</svg>
