<svg width="20" height="21" viewBox="0 0 20 21" fill="none" xmlns="http://www.w3.org/2000/svg">
<path fill-rule="evenodd" clip-rule="evenodd" d="M17.3153 10.0938C17.3153 10.4338 17.2853 10.7537 17.2453 11.0737L19.3553 12.7238C19.5453 12.8737 19.5953 13.1438 19.4753 13.3638L17.4753 16.8237C17.3853 16.9837 17.2153 17.0737 17.0453 17.0737C16.9853 17.0737 16.9253 17.0638 16.8653 17.0438L14.3753 16.0437C13.8553 16.4338 13.2953 16.7738 12.6853 17.0238L12.3053 19.6737C12.2753 19.9137 12.0653 20.0938 11.8153 20.0938H7.81527C7.56527 20.0938 7.35527 19.9137 7.32527 19.6737L6.94527 17.0238C6.33527 16.7738 5.77527 16.4438 5.25527 16.0437L2.76527 17.0438C2.71527 17.0638 2.65527 17.0737 2.59527 17.0737C2.41527 17.0737 2.24527 16.9837 2.15527 16.8237L0.155269 13.3638C0.0352691 13.1438 0.0852691 12.8737 0.275269 12.7238L2.38527 11.0737C2.34527 10.7537 2.31527 10.4237 2.31527 10.0938C2.31527 9.76375 2.34527 9.43375 2.38527 9.11375L0.275269 7.46375C0.0852691 7.31375 0.0252691 7.04375 0.155269 6.82375L2.15527 3.36375C2.24527 3.20375 2.41527 3.11375 2.58527 3.11375C2.64527 3.11375 2.70527 3.12375 2.76527 3.14375L5.25527 4.14375C5.77527 3.75375 6.33527 3.41375 6.94527 3.16375L7.32527 0.51375C7.35527 0.27375 7.56527 0.09375 7.81527 0.09375H11.8153C12.0653 0.09375 12.2753 0.27375 12.3053 0.51375L12.6853 3.16375C13.2953 3.41375 13.8553 3.74375 14.3753 4.14375L16.8653 3.14375C16.9153 3.12375 16.9753 3.11375 17.0353 3.11375C17.2153 3.11375 17.3853 3.20375 17.4753 3.36375L19.4753 6.82375C19.5953 7.04375 19.5453 7.31375 19.3553 7.46375L17.2453 9.11375C17.2853 9.43375 17.3153 9.75375 17.3153 10.0938ZM15.3153 10.0938C15.3153 9.88375 15.3053 9.67375 15.2653 9.36375L15.1253 8.23375L16.0153 7.53375L17.0853 6.68375L16.3853 5.47375L15.1153 5.98375L14.0553 6.41375L13.1453 5.71375C12.7453 5.41375 12.3453 5.18375 11.9153 5.00375L10.8553 4.57375L10.6953 3.44375L10.5053 2.09375H9.11527L8.91527 3.44375L8.75527 4.57375L7.69527 5.00375C7.28527 5.17375 6.87527 5.41375 6.44527 5.73375L5.54527 6.41375L4.50527 5.99375L3.23527 5.48375L2.53527 6.69375L3.61527 7.53375L4.50527 8.23375L4.36527 9.36375C4.33527 9.66375 4.31527 9.89375 4.31527 10.0938C4.31527 10.2937 4.33527 10.5237 4.36527 10.8337L4.50527 11.9637L3.61527 12.6637L2.53527 13.5037L3.23527 14.7137L4.50527 14.2037L5.56527 13.7738L6.47527 14.4738C6.87527 14.7738 7.27527 15.0037 7.70527 15.1838L8.76527 15.6138L8.92527 16.7437L9.11527 18.0938H10.5153L10.7153 16.7437L10.8753 15.6138L11.9353 15.1838C12.3453 15.0138 12.7553 14.7737 13.1853 14.4537L14.0853 13.7738L15.1253 14.1938L16.3953 14.7037L17.0953 13.4937L16.0153 12.6538L15.1253 11.9537L15.2653 10.8237C15.2953 10.5237 15.3153 10.3038 15.3153 10.0938ZM9.81527 6.09375C7.60527 6.09375 5.81527 7.88375 5.81527 10.0938C5.81527 12.3038 7.60527 14.0938 9.81527 14.0938C12.0253 14.0938 13.8153 12.3038 13.8153 10.0938C13.8153 7.88375 12.0253 6.09375 9.81527 6.09375ZM7.81527 10.0938C7.81527 11.1938 8.71527 12.0938 9.81527 12.0938C10.9153 12.0938 11.8153 11.1938 11.8153 10.0938C11.8153 8.99375 10.9153 8.09375 9.81527 8.09375C8.71527 8.09375 7.81527 8.99375 7.81527 10.0938Z" fill="black" fillOpacity="0.54"/>
</svg>
