<svg width="55" height="56" viewBox="0 0 55 56" fill="none" xmlns="http://www.w3.org/2000/svg">
<path d="M3.83664 0.632812L0.394531 4.07492L12.6006 16.2566C8.54818 16.2566 5.27696 19.5278 5.27696 23.5802V38.2275H15.0418V47.9923H44.3364L51.5379 55.2183L54.98 51.7762L3.83664 0.632812Z" fill="white"/>
<path d="M15.0426 33.3467H10.1602V23.5818C10.1602 22.2392 11.2587 21.1406 12.6014 21.1406H17.4838L24.8074 28.4643H15.0426V33.3467Z" fill="white"/>
<path d="M19.9258 43.1125V33.3477H29.6906L39.4555 43.1125H19.9258Z" fill="white"/>
<path d="M19.9215 8.93321H39.4512V16.2568H26.4151L31.2975 21.1393H46.7748C48.1175 21.1393 49.216 22.2378 49.216 23.5805V33.3453L44.3336 33.3697V28.4629H38.6212L48.386 38.2278H54.0985V23.5805C54.0985 19.5281 50.8272 16.2568 46.7748 16.2568H44.3336V4.05078H15.0391V4.92962L19.9215 9.81204V8.93321Z" fill="white"/>
<path d="M44.3397 22.3828C42.9914 22.3828 41.8984 23.4758 41.8984 24.824C41.8984 26.1723 42.9914 27.2652 44.3397 27.2652C45.6879 27.2652 46.7809 26.1723 46.7809 24.824C46.7809 23.4758 45.6879 22.3828 44.3397 22.3828Z" fill="white"/>
</svg>
