<svg width="19" height="19" viewBox="0 0 19 19" fill="none" xmlns="http://www.w3.org/2000/svg">
<path fill-rule="evenodd" clip-rule="evenodd" d="M0.0859375 2.02344H2.08594V0.0234375H0.0859375V2.02344ZM2.08594 6.02344H0.0859375V4.02344H2.08594V6.02344ZM2.08594 10.0234H0.0859375V8.02344H2.08594V10.0234ZM16.0859 14.0234H18.0859V12.0234H16.0859V14.0234ZM16.0859 16.0234H18.0859V18.0234H16.0859V16.0234ZM0.0859375 14.0234H2.08594V12.0234H0.0859375V14.0234ZM6.08594 2.02344H4.08594V0.0234375H6.08594V2.02344ZM10.0859 18.0234H8.08594V16.0234H10.0859V18.0234ZM6.08594 18.0234H4.08594V16.0234H6.08594V18.0234ZM0.0859375 18.0234H2.08594V16.0234H0.0859375V18.0234ZM13.0859 0.0234375C15.8459 0.0234375 18.0859 2.26344 18.0859 5.02344V10.0234H16.0859V5.02344C16.0859 3.37344 14.7359 2.02344 13.0859 2.02344H8.08594V0.0234375H13.0859Z" fill="black" fillOpacity="0.54"/>
</svg>
