<svg width="48" height="51" viewBox="0 0 48 51" fill="none" xmlns="http://www.w3.org/2000/svg">
<path fill-rule="evenodd" clip-rule="evenodd" d="M42.6876 0.632812H6.18703C3.31912 0.632812 0.972656 3.14158 0.972656 6.20785V25.7205C0.972656 28.7868 3.31912 31.2955 6.18703 31.2955H42.6876C45.5555 31.2955 47.902 28.7868 47.902 25.7205V6.20785C47.902 3.14158 45.5555 0.632812 42.6876 0.632812ZM6.18693 20.1465H14.3474C14.8949 22.3207 16.0942 24.2441 17.6585 25.7215H6.18693V20.1465ZM31.2155 25.7215H42.6871V20.1465H34.5266C33.9791 22.3207 32.7798 24.2441 31.2155 25.7215ZM42.6875 14.5715H29.6516V17.3591C29.6516 20.3417 27.2269 22.9341 24.4372 22.9341C21.6475 22.9341 19.2229 20.3417 19.2229 17.3591V14.5715H6.18693V6.20898H42.6875V14.5715ZM29.6517 34.0837H37.4732H47.902V45.2337C47.902 48.3 45.5555 50.8088 42.6876 50.8088H6.18703C3.31912 50.8088 0.972656 48.3 0.972656 45.2337V34.0837H19.2229V36.8712C19.2229 38.1813 19.7183 39.3799 20.4744 40.3556C21.4391 41.61 22.873 42.4462 24.4373 42.4462C26.0016 42.4462 27.4356 41.61 28.4002 40.3556C29.1563 39.3799 29.6517 38.1813 29.6517 36.8712V34.0837ZM6.18693 39.6582H14.3474C14.3843 39.8355 14.4472 39.999 14.5085 40.1583L14.5085 40.1583C14.534 40.2244 14.5591 40.2897 14.5821 40.3551C15.2078 42.2506 16.2767 43.9231 17.6585 45.2332H6.18693V39.6582ZM31.2155 45.2332H42.6871V39.6582H34.5266C34.4898 39.8355 34.4269 39.9989 34.3655 40.1583C34.3401 40.2243 34.3149 40.2897 34.292 40.3551C33.6923 42.2506 32.6234 43.9231 31.2155 45.2332Z" fill="white"/>
</svg>
