<svg width="19" height="21" viewBox="0 0 19 21" fill="none" xmlns="http://www.w3.org/2000/svg">
<path fill-rule="evenodd" clip-rule="evenodd" d="M8.42594 13.7947C8.81594 14.1847 9.44594 14.1847 9.83594 13.7947L16.1959 7.4347C16.5859 7.0447 16.5859 6.4147 16.1959 6.0247L11.2459 1.0747C10.8659 0.674699 10.2359 0.674699 9.84594 1.0647L3.47594 7.4347C3.08594 7.8247 3.08594 8.4547 3.47594 8.8447L8.42594 13.7947ZM14.4059 11.7747H15.0859L18.0859 14.7747V18.7747C18.0859 19.8847 17.1859 20.7747 16.0859 20.7747H2.07594C0.975937 20.7747 0.0859375 19.8747 0.0859375 18.7747V14.7747L3.08594 11.7747H3.91594L5.91594 13.7747H3.86594L2.08594 15.7747H16.0859L14.3159 13.7747H12.4059L14.4059 11.7747ZM2.08594 18.7747H16.0859V17.7747H2.08594V18.7747ZM14.0859 6.72472L10.5459 3.18472L5.59594 8.13472L9.13594 11.6747L14.0859 6.72472Z" fill="black" fillOpacity="0.54"/>
</svg>
