<svg width="21" height="21" viewBox="0 0 21 21" fill="none" xmlns="http://www.w3.org/2000/svg">
<path opacity="0.54" fill-rule="evenodd" clip-rule="evenodd" d="M10.0859 0.390625C4.56594 0.390625 0.0859375 4.87063 0.0859375 10.3906C0.0859375 15.9106 4.56594 20.3906 10.0859 20.3906C15.6059 20.3906 20.0859 15.9106 20.0859 10.3906C20.0859 4.87063 15.6059 0.390625 10.0859 0.390625ZM5.15594 16.6706C5.58594 15.7706 8.20594 14.8906 10.0859 14.8906C11.9659 14.8906 14.5959 15.7706 15.0159 16.6706C13.6559 17.7506 11.9459 18.3906 10.0859 18.3906C8.22594 18.3906 6.51594 17.7506 5.15594 16.6706ZM10.0859 12.8906C11.5459 12.8906 15.0159 13.4806 16.4459 15.2206C17.4659 13.8806 18.0859 12.2106 18.0859 10.3906C18.0859 5.98063 14.4959 2.39062 10.0859 2.39062C5.67594 2.39062 2.08594 5.98063 2.08594 10.3906C2.08594 12.2106 2.70594 13.8806 3.72594 15.2206C5.15594 13.4806 8.62594 12.8906 10.0859 12.8906ZM10.0859 4.39062C8.14594 4.39062 6.58594 5.95062 6.58594 7.89062C6.58594 9.83063 8.14594 11.3906 10.0859 11.3906C12.0259 11.3906 13.5859 9.83063 13.5859 7.89062C13.5859 5.95062 12.0259 4.39062 10.0859 4.39062ZM8.58594 7.89062C8.58594 8.72062 9.25594 9.39062 10.0859 9.39062C10.9159 9.39062 11.5859 8.72062 11.5859 7.89062C11.5859 7.06063 10.9159 6.39062 10.0859 6.39062C9.25594 6.39062 8.58594 7.06063 8.58594 7.89062Z" fill="#363740"/>
</svg>
