<svg width="42" height="42" viewBox="0 0 42 42" fill="none" xmlns="http://www.w3.org/2000/svg">
<path fill-rule="evenodd" clip-rule="evenodd" d="M20.7114 0.279297C9.40917 0.279297 0.236328 9.45214 0.236328 20.7544C0.236328 32.0567 9.40917 41.2295 20.7114 41.2295C32.0137 41.2295 41.1865 32.0567 41.1865 20.7544C41.1865 9.45214 32.0137 0.279297 20.7114 0.279297ZM10.6169 33.6119C11.4973 31.7691 16.8618 29.9673 20.7111 29.9673C24.5604 29.9673 29.9454 31.7691 30.8053 33.6119C28.0207 35.8232 24.5195 37.1336 20.7111 37.1336C16.9028 37.1336 13.4015 35.8232 10.6169 33.6119ZM20.7122 25.8724C23.7015 25.8724 30.8064 27.0804 33.7343 30.6431C35.8228 27.8994 37.0922 24.4801 37.0922 20.7536C37.0922 11.7241 29.7417 4.3735 20.7122 4.3735C11.6826 4.3735 4.33208 11.7241 4.33208 20.7536C4.33208 24.4801 5.60154 27.8994 7.69 30.6431C10.6179 27.0804 17.7228 25.8724 20.7122 25.8724ZM20.7123 8.46848C16.7401 8.46848 13.546 11.6626 13.546 15.6348C13.546 19.6069 16.7401 22.8011 20.7123 22.8011C24.6844 22.8011 27.8786 19.6069 27.8786 15.6348C27.8786 11.6626 24.6844 8.46848 20.7123 8.46848ZM17.6402 15.6347C17.6402 17.3342 19.012 18.706 20.7115 18.706C22.4109 18.706 23.7827 17.3342 23.7827 15.6347C23.7827 13.9353 22.4109 12.5635 20.7115 12.5635C19.012 12.5635 17.6402 13.9353 17.6402 15.6347Z" fill="white"/>
</svg>
