<svg width="44" height="43" viewBox="0 0 44 43" fill="none" xmlns="http://www.w3.org/2000/svg">
<path fill-rule="evenodd" clip-rule="evenodd" d="M39.3856 9.51321H34.648C34.887 8.83951 35.0392 8.10061 35.0392 7.33998C35.0392 3.73243 32.127 0.820312 28.5195 0.820312C26.2376 0.820312 24.26 1.99385 23.0864 3.75416L21.9998 5.21023L20.9132 3.73243C19.7397 1.99385 17.762 0.820312 15.4801 0.820312C11.8726 0.820312 8.96047 3.73243 8.96047 7.33998C8.96047 8.10061 9.1126 8.83951 9.35165 9.51321H4.61403C2.20175 9.51321 0.28931 11.4474 0.28931 13.8597L0.267578 37.7651C0.267578 40.1774 2.20175 42.1116 4.61403 42.1116H39.3856C41.7979 42.1116 43.7321 40.1774 43.7321 37.7651V13.8597C43.7321 11.4474 41.7979 9.51321 39.3856 9.51321ZM28.5195 5.16676C29.7148 5.16676 30.6927 6.14471 30.6927 7.33998C30.6927 8.53526 29.7148 9.51321 28.5195 9.51321C27.3242 9.51321 26.3463 8.53526 26.3463 7.33998C26.3463 6.14471 27.3242 5.16676 28.5195 5.16676ZM17.6534 7.33998C17.6534 6.14471 16.6754 5.16676 15.4801 5.16676C14.2849 5.16676 13.3069 6.14471 13.3069 7.33998C13.3069 8.53526 14.2849 9.51321 15.4801 9.51321C16.6754 9.51321 17.6534 8.53526 17.6534 7.33998ZM4.61403 37.7651V33.4187H39.3856V37.7651H4.61403ZM4.61403 13.8605V26.8999H39.3856V13.8605H28.3456L32.8659 20.0107L29.3453 22.5534L21.9998 12.5566L14.6543 22.5534L11.1337 20.0107L15.654 13.8605H4.61403Z" fill="white"/>
</svg>
