<svg width="62" height="36" viewBox="0 0 62 36" fill="none" xmlns="http://www.w3.org/2000/svg">
<path fill-rule="evenodd" clip-rule="evenodd" d="M31.0006 18.1739C35.8366 18.1739 39.7706 14.2399 39.7706 9.40384C39.7706 4.56778 35.8366 0.633789 31.0006 0.633789C26.1645 0.633789 22.2305 4.56778 22.2305 9.40384C22.2305 14.2399 26.1645 18.1739 31.0006 18.1739ZM13.4603 25.6913V18.1742H20.9775V13.1627H13.4603V5.64552H8.44882V13.1627H0.931641V18.1742H8.44882V25.6913H13.4603ZM31.0011 22.5587C25.1377 22.5587 13.461 25.4904 13.461 31.3287V35.7137H48.5412V31.3287C48.5412 25.4904 36.8645 22.5587 31.0011 22.5587ZM30.999 27.5704C26.5138 27.5704 21.4271 29.2492 19.3223 30.7025H42.6757C40.5709 29.2492 35.4843 27.5704 30.999 27.5704ZM34.7594 9.40411C34.7594 7.32436 33.0806 5.64552 31.0009 5.64552C28.9211 5.64552 27.2423 7.32436 27.2423 9.40411C27.2423 11.4839 28.9211 13.1627 31.0009 13.1627C33.0806 13.1627 34.7594 11.4839 34.7594 9.40411ZM43.5285 18.1739C48.3646 18.1739 52.2986 14.2399 52.2986 9.40384C52.2986 4.56778 48.3646 0.633789 43.5285 0.633789C42.9271 0.633789 42.3258 0.683904 41.7494 0.80919C43.6538 3.16457 44.7814 6.14639 44.7814 9.40384C44.7814 12.6613 43.6037 15.618 41.6993 17.9734C42.3007 18.0987 42.9021 18.1739 43.5285 18.1739ZM53.5535 31.3279C53.5535 27.9201 51.8496 25.2641 49.3439 23.2344C54.9567 24.4121 61.0707 27.0933 61.0707 31.3279V35.713H53.5535V31.3279Z" fill="white"/>
</svg>
