<svg width="48" height="51" viewBox="0 0 48 51" fill="none" xmlns="http://www.w3.org/2000/svg">
<path fill-rule="evenodd" clip-rule="evenodd" d="M42.2501 0.633789H5.74953C2.88162 0.633789 0.535156 3.14256 0.535156 6.20883V25.7215C0.535156 28.7877 2.88162 31.2965 5.74953 31.2965H42.2501C45.118 31.2965 47.4645 28.7877 47.4645 25.7215V6.20883C47.4645 3.14256 45.118 0.633789 42.2501 0.633789ZM5.74943 20.1475H13.9099C14.4574 22.3217 15.6567 24.2451 17.221 25.7225H5.74943V20.1475ZM30.778 25.7225H42.2496V20.1475H34.0891C33.5416 22.3217 32.3423 24.2451 30.778 25.7225ZM42.25 14.5725H29.2141V17.36C29.2141 20.3427 26.7894 22.9351 23.9997 22.9351C21.21 22.9351 18.7854 20.3427 18.7854 17.36V14.5725H5.74943V6.20996H42.25V14.5725ZM29.2142 34.0846H37.0357H47.4645V45.2347C47.4645 48.301 45.118 50.8098 42.2501 50.8098H5.74953C2.88162 50.8098 0.535156 48.301 0.535156 45.2347V34.0846H18.7854V36.8722C18.7854 38.1823 19.2808 39.3809 20.0369 40.3566C21.0016 41.6109 22.4355 42.4472 23.9998 42.4472C25.5641 42.4472 26.9981 41.6109 27.9627 40.3566C28.7188 39.3809 29.2142 38.1823 29.2142 36.8722V34.0846ZM5.74943 39.6592H13.9099C13.9468 39.8365 14.0097 39.9999 14.071 40.1593L14.071 40.1593C14.0965 40.2253 14.1216 40.2907 14.1446 40.3561C14.7703 42.2516 15.8392 43.9241 17.221 45.2342H5.74943V39.6592ZM30.778 45.2342H42.2496V39.6592H34.0891C34.0523 39.8365 33.9894 39.9999 33.928 40.1592C33.9026 40.2253 33.8774 40.2907 33.8545 40.3561C33.2548 42.2516 32.1859 43.9241 30.778 45.2342Z" fill="white"/>
</svg>
