<svg width="79" height="79" viewBox="0 0 79 79" fill="none" xmlns="http://www.w3.org/2000/svg">
<path fill-rule="evenodd" clip-rule="evenodd" d="M39.4621 0.358398C17.9993 0.358398 0.619141 17.7775 0.619141 39.2402C0.619141 60.703 17.9993 78.1221 39.4621 78.1221C60.9637 78.1221 78.3828 60.703 78.3828 39.2402C78.3828 17.7775 60.9637 0.358398 39.4621 0.358398ZM43.3892 19.7993H35.6129V43.1284H43.3892V19.7993ZM43.3892 50.9069H35.6129V58.6833H43.3892V50.9069ZM8.39538 39.2424C8.39538 56.4282 22.3151 70.3479 39.5008 70.3479C56.6866 70.3479 70.6063 56.4282 70.6063 39.2424C70.6063 22.0566 56.6866 8.13692 39.5008 8.13692C22.3151 8.13692 8.39538 22.0566 8.39538 39.2424Z" fill="#EB5757"/>
</svg>
