<svg width="21" height="19" viewBox="0 0 21 19" fill="none" xmlns="http://www.w3.org/2000/svg">
<path fill-rule="evenodd" clip-rule="evenodd" d="M7.37402 0.356445H13.374L15.204 2.35645H18.374C19.474 2.35645 20.374 3.25645 20.374 4.35645V16.3564C20.374 17.4564 19.474 18.3564 18.374 18.3564H2.37402C1.27402 18.3564 0.374023 17.4564 0.374023 16.3564V4.35645C0.374023 3.25645 1.27402 2.35645 2.37402 2.35645H5.54402L7.37402 0.356445ZM14.324 4.35645L12.494 2.35645H8.25402L6.42402 4.35645H2.37402V16.3564H18.374V4.35645H14.324ZM10.374 7.35645C12.024 7.35645 13.374 8.70644 13.374 10.3564C13.374 12.0064 12.024 13.3564 10.374 13.3564C8.72402 13.3564 7.37402 12.0064 7.37402 10.3564C7.37402 8.70644 8.72402 7.35645 10.374 7.35645ZM5.37402 10.3564C5.37402 7.59644 7.61402 5.35645 10.374 5.35645C13.134 5.35645 15.374 7.59644 15.374 10.3564C15.374 13.1164 13.134 15.3564 10.374 15.3564C7.61402 15.3564 5.37402 13.1164 5.37402 10.3564Z" fill="#B569D4"/>
</svg>
