<svg width="39" height="32" viewBox="0 0 39 32" fill="none" xmlns="http://www.w3.org/2000/svg">
<path fill-rule="evenodd" clip-rule="evenodd" d="M35.2216 0.509766H4.09345C2.36411 0.509766 0.634766 2.23911 0.634766 3.96845V28.1792C0.634766 30.0815 2.19117 31.6379 4.09345 31.6379H35.2216C36.9509 31.6379 38.6803 29.9086 38.6803 28.1792V3.96845C38.6803 2.23911 36.9509 0.509766 35.2216 0.509766ZM35.2216 28.0409C35.1975 28.0771 35.1565 28.1132 35.1222 28.1435C35.1074 28.1567 35.0937 28.1688 35.0833 28.1792H4.09344V4.10679L4.23179 3.96844H35.066C35.1021 3.99255 35.1383 4.03348 35.1686 4.06777C35.1818 4.08266 35.1938 4.09631 35.2043 4.10679V28.0409H35.2216ZM13.6048 16.9385L17.9282 22.1438L23.9809 14.3445L31.7629 24.7206H7.55212L13.6048 16.9385Z" fill="#BDBDBD"/>
</svg>
